<?xml version="1.0" encoding="UTF-8" standalone="no"?>
<svg
   xmlns:dc="http://purl.org/dc/elements/1.1/"
   xmlns:cc="http://creativecommons.org/ns#"
   xmlns:rdf="http://www.w3.org/1999/02/22-rdf-syntax-ns#"
   xmlns:svg="http://www.w3.org/2000/svg"
   xmlns="http://www.w3.org/2000/svg"
   viewBox="0 0 1122.52 793.70667"
   height="793.70667"
   width="1122.52"
   xml:space="preserve"
   id="svg2"
   version="1.1"><metadata
     id="metadata8"><rdf:RDF><cc:Work
         rdf:about=""><dc:format>image/svg+xml</dc:format><dc:type
           rdf:resource="http://purl.org/dc/dcmitype/StillImage" /></cc:Work></rdf:RDF></metadata><defs
     id="defs6"><clipPath
       id="clipPath18"
       clipPathUnits="userSpaceOnUse"><path
         id="path16"
         d="M 0,595.28 H 841.89 V 0 H 0 Z" /></clipPath></defs><g
     transform="matrix(1.3333333,0,0,-1.3333333,0,793.70667)"
     id="g10"><g
       id="g12"><g
         clip-path="url(#clipPath18)"
         id="g14"><g
           transform="translate(580.7676,245.1611)"
           id="g20"><path
             id="path22"
             style="fill:#c51b33;fill-opacity:1;fill-rule:nonzero;stroke:none"
             d="m 0,0 -81.821,6.758 -40.931,3.111 -30.867,2.082 V 99.33 l -1.255,0.42 36.809,5.214 40.893,6.135 81.701,12.817 81.586,13.566 c 27.17,4.659 54.336,9.365 81.445,14.434 -27.323,-3.724 -54.59,-7.809 -81.845,-11.944 l -81.701,-12.805 -81.589,-13.561 -40.748,-7.049 -36.871,-6.7 -4.442,1.488 -4.079,-1.367 c -25.489,4.701 -51.027,9.123 -76.576,13.483 l -82.178,13.61 -82.299,12.862 -41.189,6.162 -41.248,5.821 40.988,-7.414 41.049,-7.071 82.178,-13.607 82.301,-12.854 c 25.468,-3.851 50.945,-7.646 76.467,-11.162 L -165.65,99.33 V 11.643 l -32.93,-2.127 -40.409,-2.959 -80.783,-6.461 -80.716,-7.219 c -26.897,-2.543 -53.782,-5.143 -80.644,-8.096 26.972,1.602 53.922,3.565 80.856,5.578 l 80.778,6.453 80.717,7.219 40.335,3.875 32.796,3.436 v -0.278 h 6.014 6.017 v 0.489 l 30.726,-3.291 40.858,-4.03 81.751,-7.511 81.825,-6.756 c 27.281,-2.115 54.574,-4.178 81.892,-5.879 -27.205,3.057 -54.442,5.752 -81.678,8.394 z" /></g><g
           transform="translate(475.6318,266.6064)"
           id="g24"><path
             id="path26"
             style="fill:#c51b33;fill-opacity:1;fill-rule:nonzero;stroke:none"
             d="M 0,0 C -2.033,-0.418 -4,-1.064 -5.893,-1.93 -3.856,-1.508 -1.888,-0.865 0,0" /></g><g
           transform="translate(475.6318,293.9014)"
           id="g28"><path
             id="path30"
             style="fill:#c51b33;fill-opacity:1;fill-rule:nonzero;stroke:none"
             d="M 0,0 C -0.23,-9.102 -0.23,-18.197 0,-27.295 0.233,-18.197 0.233,-9.102 0,0" /></g><g
           transform="translate(142.0762,239.1201)"
           id="g32"><path
             id="path34"
             style="fill:#c51b33;fill-opacity:1;fill-rule:nonzero;stroke:none"
             d="m 0,0 c -0.066,-0.031 -0.111,-0.051 -0.111,-0.051 l 0.244,0.02 c 0.026,-0.006 0.052,-0.014 0.078,-0.02 -0.016,0.008 -0.033,0.014 -0.049,0.022 l 47.199,3.552 c 0,0 33.985,26.989 15.965,59.92 -8.176,14.932 -36.449,15.084 -41.137,36.987 -5.97,27.907 50.124,33.917 50.124,33.917 l -17.542,2.806 c 0,0 -52.253,-4.569 -49.071,-40.571 C 7.967,70.905 38.693,60.606 42.475,54.193 58.551,26.965 3.338,1.508 0.045,0.02 -1.793,0.848 -3.705,1.471 -5.686,1.881 -3.861,1.041 -1.963,0.42 0,0" /></g><g
           transform="translate(136.3906,241.001)"
           id="g36"><path
             id="path38"
             style="fill:#c51b33;fill-opacity:1;fill-rule:nonzero;stroke:none"
             d="M 0,0 C 5.551,2.715 10.977,5.635 16.301,8.762 10.762,6.049 5.326,3.129 0,0" /></g><g
           transform="translate(546.9277,253.8018)"
           id="g40"><path
             id="path42"
             style="fill:#c51b33;fill-opacity:1;fill-rule:nonzero;stroke:none"
             d="M 0,0 C 2.038,0.422 4.007,1.062 5.896,1.93 3.854,1.512 1.893,0.865 0,0" /></g><g
           transform="translate(552.8232,283.0283)"
           id="g44"><path
             id="path46"
             style="fill:#c51b33;fill-opacity:1;fill-rule:nonzero;stroke:none"
             d="M 0,0 C -0.231,-9.1 -0.231,-18.197 0,-27.297 0.233,-18.197 0.233,-9.1 0,0" /></g><g
           transform="translate(330.4717,258.9307)"
           id="g48"><path
             id="path50"
             style="fill:#c51b33;fill-opacity:1;fill-rule:nonzero;stroke:none"
             d="M 0,0 C 1.388,-0.859 2.872,-1.504 4.443,-1.93 3.054,-1.072 1.573,-0.428 0,0" /></g><g
           transform="translate(330.4717,286.2256)"
           id="g52"><path
             id="path54"
             style="fill:#c51b33;fill-opacity:1;fill-rule:nonzero;stroke:none"
             d="M 0,0 C -0.231,-9.102 -0.231,-18.197 0,-27.295 0.233,-18.197 0.233,-9.102 0,0" /></g><g
           transform="translate(624.5986,251.8721)"
           id="g56"><path
             id="path58"
             style="fill:#c51b33;fill-opacity:1;fill-rule:nonzero;stroke:none"
             d="M 0,0 H 0.001 C 2.038,0.422 4.007,1.064 5.894,1.93 3.856,1.512 1.895,0.865 0.001,0 v 15.6 l -41.782,1.804 v 25.961 h 33.827 v 12.069 h -33.827 v 25.179 l 41.782,3.603 v 16.643 L -53.813,92.678 V 5.33 L -0.001,0 Z" /></g><g
           transform="translate(630.4922,267.2178)"
           id="g60"><path
             id="path62"
             style="fill:#c51b33;fill-opacity:1;fill-rule:nonzero;stroke:none"
             d="M 0,0 C -0.23,-4.471 -0.23,-8.943 0,-13.416 0.234,-8.943 0.234,-4.471 0,0" /></g><g
           transform="translate(622.5586,297.0845)"
           id="g64"><path
             id="path66"
             style="fill:#c51b33;fill-opacity:1;fill-rule:nonzero;stroke:none"
             d="M 0,0 V -0.004 C 0.234,3.632 0.234,7.268 0,10.903 -0.23,7.27 -0.23,3.635 0,0 -2.038,-0.421 -4,-1.064 -5.895,-1.931 -3.856,-1.509 -1.888,-0.865 0,0" /></g><g
           transform="translate(630.4922,350.7153)"
           id="g68"><path
             id="path70"
             style="fill:#c51b33;fill-opacity:1;fill-rule:nonzero;stroke:none"
             d="m 0,0 c -0.23,-4.75 -0.23,-9.496 0,-14.248 -1.982,0.071 -3.945,-0.09 -5.895,-0.482 1.983,-0.071 3.951,0.084 5.895,0.482 V -14.25 C 0.234,-9.498 0.234,-4.75 0,0" /></g><g
           transform="translate(735.4395,236.0557)"
           id="g72"><path
             id="path74"
             style="fill:#c51b33;fill-opacity:1;fill-rule:nonzero;stroke:none"
             d="M 0,0 C 2.038,0.42 4.007,1.064 5.895,1.93 3.859,1.512 1.895,0.863 0,0" /></g><g
           transform="translate(741.334,265.2822)"
           id="g76"><path
             id="path78"
             style="fill:#c51b33;fill-opacity:1;fill-rule:nonzero;stroke:none"
             d="M 0,0 C -0.23,-9.1 -0.23,-18.199 0,-27.297 0.234,-18.199 0.234,-9.1 0,0" /></g><g
           transform="translate(252.7187,278.6846)"
           id="g80"><path
             id="path82"
             style="fill:#c51b33;fill-opacity:1;fill-rule:nonzero;stroke:none"
             d="m 0,0 c -3.214,3.025 -5.771,6.65 -7.662,10.875 -1.901,4.262 -2.854,8.873 -2.834,13.802 0.014,4.942 0.994,9.545 2.93,13.789 1.916,4.209 4.5,7.83 7.734,10.832 3.188,2.963 6.857,5.19 11,6.709 4.058,1.493 8.33,2.053 12.811,1.719 4.382,-0.326 8.417,-1.48 12.125,-3.449 3.63,-1.932 6.76,-4.405 9.397,-7.43 2.605,-2.986 4.637,-6.398 6.12,-10.234 1.468,-3.809 2.186,-7.85 2.174,-12.151 C 53.783,20.167 53.029,16.125 51.537,12.322 50.028,8.5 47.976,5.109 45.351,2.137 42.693,-0.867 39.549,-3.33 35.898,-5.236 32.188,-7.174 28.137,-8.303 23.753,-8.604 19.271,-8.908 15.002,-8.313 10.956,-6.795 6.824,-5.254 3.172,-2.986 0,0 m 23.695,-26.551 c 4.485,0.481 8.74,1.526 12.747,3.133 3.949,1.563 7.57,3.58 10.902,6.016 3.283,2.406 6.217,5.15 8.822,8.25 2.584,3.048 4.777,6.367 6.611,9.951 1.809,3.556 3.202,7.314 4.172,11.299 0.975,3.963 1.469,8.056 1.483,12.309 0.011,4.253 -0.446,8.358 -1.395,12.325 -0.946,3.992 -2.314,7.77 -4.098,11.328 -1.809,3.598 -3.976,6.928 -6.546,10.007 -2.581,3.108 -5.497,5.875 -8.763,8.298 -3.318,2.469 -6.931,4.5 -10.86,6.101 -4.001,1.623 -8.247,2.71 -12.734,3.219 -4.577,0.523 -9.073,0.408 -13.478,-0.335 -4.494,-0.771 -8.787,-2.114 -12.845,-4.06 -4.119,-1.97 -7.941,-4.478 -11.418,-7.515 -3.52,-3.096 -6.606,-6.636 -9.212,-10.645 -2.645,-4.033 -4.713,-8.461 -6.167,-13.252 -1.478,-4.82 -2.22,-9.861 -2.24,-15.127 -0.028,-7.911 1.563,-15.298 4.738,-22.083 3.125,-6.699 7.357,-12.389 12.615,-17.051 5.162,-4.574 11.055,-7.931 17.639,-10.123 6.398,-2.121 13.086,-2.787 20.027,-2.045" /></g><g
           transform="translate(347.8789,333.5024)"
           id="g84"><path
             id="path86"
             style="fill:#c51b33;fill-opacity:1;fill-rule:nonzero;stroke:none"
             d="m 0,0 18.588,-3.644 c 2.379,-0.559 4.014,-0.948 5.353,-1.54 1.676,-0.744 3.052,-1.927 4.253,-3.263 1.204,-1.316 2.122,-2.815 2.789,-4.481 0.663,-1.667 1.001,-3.417 1.001,-5.241 0,-1.876 -0.338,-3.598 -1.001,-5.19 -0.667,-1.596 -1.585,-3.005 -2.789,-4.215 -1.201,-1.226 -2.615,-2.194 -4.253,-2.902 -1.656,-0.713 -3.442,-1.074 -5.353,-1.087 L 0,-31.644 Z m 0,-43.296 18.588,0.775 c 3.403,0.143 6.545,0.9 9.434,2.291 2.821,1.352 5.231,3.121 7.267,5.298 2,2.146 3.565,4.611 4.703,7.423 1.13,2.786 1.688,5.759 1.688,8.925 0,3.159 -0.558,6.18 -1.688,9.063 -1.138,2.905 -2.703,5.511 -4.703,7.824 -2.036,2.351 -4.37,4.521 -7.271,5.918 -2.672,1.287 -5.709,2.149 -9.43,3.101 l -31.552,8.711 V -76.501 L 0,-74.671 Z" /></g><g
           transform="translate(546.9277,253.8018)"
           id="g88"><path
             id="path90"
             style="fill:#c51b33;fill-opacity:1;fill-rule:nonzero;stroke:none"
             d="m 0,0 v 92.865 l -10.563,-0.557 c -1.85,-0.094 -7.946,-4.373 -8.718,-6.195 0,0 -26.233,-31.702 -27.447,-32.944 -0.779,1.017 -25.71,26.73 -25.71,26.73 -0.646,1.574 -5.888,5.106 -7.533,5.026 l -8.541,-0.406 V 11.766 l 10.324,-1.352 v 60.669 c 0,-0.203 26.014,-30.653 26.014,-30.653 l 11.011,-0.084 c 0,0 28.705,33.37 28.75,33.492 V 2.057 Z" /></g><g
           transform="translate(735.4395,236.0557)"
           id="g92"><path
             id="path94"
             style="fill:#c51b33;fill-opacity:1;fill-rule:nonzero;stroke:none"
             d="m 0,0 v 134.555 h -10.21 c -3.831,0 -7.851,-8.771 -8.62,-10.615 0,0 -28.183,-44.678 -28.303,-46.821 -0.038,1.068 -28.239,40.117 -28.239,40.117 -0.727,1.76 -6.72,5.916 -8.62,5.916 h -9.967 V 16.027 h 12.021 v 84.26 c 0,-0.222 28.979,-38.67 28.979,-38.67 h 11.72 c 0,0 29.174,49.329 29.207,49.458 L -12.032,0 Z" /></g><g
           transform="translate(427.1484,349.0278)"
           id="g96"><path
             id="path98"
             style="fill:#c51b33;fill-opacity:1;fill-rule:nonzero;stroke:none"
             d="m 0,0 v 12.076 l -6.017,1.322 -6.014,-1.322 V 0 l 6.014,1.326 z" /></g><g
           transform="translate(229.8809,266.9834)"
           id="g100"><path
             id="path102"
             style="fill:#c51b33;fill-opacity:1;fill-rule:nonzero;stroke:none"
             d="m 0,0 c 2.705,-4.887 7.075,-8.656 11.8,-11.531 4.815,-2.75 10.165,-4.696 15.698,-5.143 -5.482,0.768 -10.787,2.617 -15.512,5.465 C 7.219,-8.455 2.965,-4.699 0,0" /></g><g
           transform="translate(197.6455,210.0166)"
           id="g104"><path
             id="path106"
             style="fill:#c51b33;fill-opacity:1;fill-rule:nonzero;stroke:none"
             d="m 0,0 c -1.257,-1.258 -2.763,-1.881 -4.522,-1.881 h -4.043 v 12.865 h 4.043 C -2.763,10.984 -1.257,10.357 0,9.105 1.257,7.857 1.888,6.342 1.888,4.562 1.888,2.777 1.257,1.252 0,0 M -3.669,12.346 H -9.91 v -23.869 h 1.345 v 8.271 h 4.043 c 2.135,0 3.968,0.764 5.48,2.287 1.517,1.526 2.27,3.369 2.27,5.527 0,2.141 -0.753,3.975 -2.27,5.508 -1.266,1.272 -2.811,2.035 -4.627,2.276" /></g><g
           transform="translate(214.4209,208.1357)"
           id="g108"><path
             id="path110"
             style="fill:#c51b33;fill-opacity:1;fill-rule:nonzero;stroke:none"
             d="M 0,0 H -4.043 V 12.865 H 0 c 1.759,0 3.267,-0.627 4.522,-1.879 C 5.778,9.738 6.41,8.223 6.41,6.443 6.41,4.658 5.778,3.133 4.522,1.881 3.267,0.623 1.759,0 0,0 m 7.755,6.443 c 0,2.141 -0.758,3.975 -2.27,5.508 -1.27,1.272 -2.815,2.035 -4.629,2.276 h -6.244 v -23.87 h 1.345 v 8.272 H 0.403 L 5.704,-9.643 H 7.35 l -5.488,8.495 c 1.359,0.324 2.565,1.015 3.623,2.07 1.512,1.525 2.27,3.363 2.27,5.521" /></g><g
           transform="translate(249.3545,202.7627)"
           id="g112"><path
             id="path114"
             style="fill:#c51b33;fill-opacity:1;fill-rule:nonzero;stroke:none"
             d="m 0,0 c -2.119,-2.127 -4.673,-3.191 -7.664,-3.191 -2.985,0 -5.536,1.064 -7.657,3.191 -2.117,2.125 -3.18,4.693 -3.18,7.701 0,2.988 1.063,5.551 3.18,7.684 2.121,2.127 4.672,3.185 7.657,3.185 2.991,0 5.545,-1.058 7.664,-3.185 C 2.126,13.252 3.188,10.689 3.188,7.701 3.188,4.693 2.126,2.125 0,0 m -7.664,19.939 c -3.364,0 -6.233,-1.195 -8.622,-3.584 -2.383,-2.396 -3.574,-5.279 -3.574,-8.654 0,-3.39 1.191,-6.279 3.574,-8.674 2.389,-2.386 5.258,-3.586 8.622,-3.586 3.376,0 6.255,1.2 8.632,3.586 2.386,2.395 3.58,5.284 3.58,8.674 0,3.375 -1.194,6.258 -3.58,8.654 -2.377,2.389 -5.256,3.584 -8.632,3.584" /></g><g
           transform="translate(272.2539,211.0537)"
           id="g116"><path
             id="path118"
             style="fill:#c51b33;fill-opacity:1;fill-rule:nonzero;stroke:none"
             d="m 0,0 -8.615,11.309 h -1.952 v -23.87 h 1.349 V 9.857 L 0,-2.246 9.202,9.857 v -22.418 h 1.345 v 23.87 h -1.95 z" /></g><g
           transform="translate(310.4443,202.7627)"
           id="g120"><path
             id="path122"
             style="fill:#c51b33;fill-opacity:1;fill-rule:nonzero;stroke:none"
             d="m 0,0 c -2.119,-2.127 -4.677,-3.191 -7.669,-3.191 -2.984,0 -5.535,1.064 -7.654,3.191 -2.119,2.125 -3.181,4.693 -3.181,7.701 0,2.988 1.062,5.551 3.181,7.684 2.119,2.127 4.67,3.185 7.654,3.185 2.992,0 5.55,-1.058 7.669,-3.185 C 2.124,13.252 3.183,10.689 3.183,7.701 3.183,4.693 2.124,2.125 0,0 m -7.669,19.939 c -3.359,0 -6.231,-1.195 -8.623,-3.584 -2.379,-2.396 -3.57,-5.279 -3.57,-8.654 0,-3.39 1.191,-6.279 3.57,-8.674 2.392,-2.386 5.264,-3.586 8.623,-3.586 3.378,0 6.256,1.2 8.637,3.586 2.385,2.395 3.581,5.284 3.581,8.674 0,3.375 -1.196,6.258 -3.581,8.654 -2.381,2.389 -5.259,3.584 -8.637,3.584" /></g><g
           transform="translate(320.5186,221.0107)"
           id="g124"><path
             id="path126"
             style="fill:#c51b33;fill-opacity:1;fill-rule:nonzero;stroke:none"
             d="M 0,0 H 6.022 V -22.518 H 7.341 V 0 h 6.023 V 1.352 H 0 Z" /></g><path
           id="path128"
           style="fill:#c51b33;fill-opacity:1;fill-rule:nonzero;stroke:none"
           d="m 341.646,198.493 h 1.346 v 23.869 h -1.346 z" /><g
           transform="translate(371.1152,202.7627)"
           id="g130"><path
             id="path132"
             style="fill:#c51b33;fill-opacity:1;fill-rule:nonzero;stroke:none"
             d="m 0,0 c -2.119,-2.127 -4.678,-3.191 -7.668,-3.191 -2.984,0 -5.537,1.064 -7.654,3.191 -2.119,2.125 -3.18,4.693 -3.18,7.701 0,2.988 1.061,5.551 3.18,7.684 2.117,2.127 4.67,3.185 7.654,3.185 2.99,0 5.549,-1.058 7.668,-3.185 C 2.126,13.252 3.182,10.689 3.182,7.701 3.182,4.693 2.126,2.125 0,0 m -7.668,19.939 c -3.36,0 -6.23,-1.195 -8.619,-3.584 -2.382,-2.396 -3.576,-5.279 -3.576,-8.654 0,-3.39 1.194,-6.279 3.576,-8.674 2.389,-2.386 5.259,-3.586 8.619,-3.586 3.379,0 6.256,1.2 8.635,3.586 2.387,2.395 3.581,5.284 3.581,8.674 0,3.375 -1.194,6.258 -3.581,8.654 -2.379,2.389 -5.256,3.584 -8.635,3.584" /></g><g
           transform="translate(400.498,201.8311)"
           id="g134"><path
             id="path136"
             style="fill:#c51b33;fill-opacity:1;fill-rule:nonzero;stroke:none"
             d="M 0,0 -0.001,0.004 -0.002,-1.105 -15.1,20.531 h -1.694 V -3.338 h 1.349 V 18.369 L -0.004,-3.338 H 1.557 L 1.588,20.531 H 0.025 Z" /></g><path
           id="path138"
           style="fill:#c51b33;fill-opacity:1;fill-rule:nonzero;stroke:none"
           d="m 439.044,198.493 h 1.35 v 23.869 h -1.35 z" /><g
           transform="translate(459.7549,211.0537)"
           id="g140"><path
             id="path142"
             style="fill:#c51b33;fill-opacity:1;fill-rule:nonzero;stroke:none"
             d="m 0,0 -8.617,11.309 h -1.953 v -23.87 h 1.352 V 9.857 L 0,-2.246 9.2,9.857 v -22.418 h 1.347 v 23.87 H 8.595 Z" /></g><g
           transform="translate(489.1797,211.0537)"
           id="g144"><path
             id="path146"
             style="fill:#c51b33;fill-opacity:1;fill-rule:nonzero;stroke:none"
             d="m 0,0 -8.617,11.309 h -1.953 v -23.87 h 1.349 V 9.857 L 0,-2.246 9.195,9.857 v -22.418 h 1.347 v 23.87 H 8.59 Z" /></g><g
           transform="translate(527.3672,202.7627)"
           id="g148"><path
             id="path150"
             style="fill:#c51b33;fill-opacity:1;fill-rule:nonzero;stroke:none"
             d="m 0,0 c -2.119,-2.127 -4.677,-3.191 -7.669,-3.191 -2.984,0 -5.535,1.064 -7.654,3.191 -2.119,2.125 -3.183,4.693 -3.183,7.701 0,2.988 1.064,5.551 3.183,7.684 2.119,2.127 4.67,3.185 7.654,3.185 2.992,0 5.55,-1.058 7.669,-3.185 C 2.122,13.252 3.183,10.689 3.183,7.701 3.183,4.693 2.122,2.125 0,0 m -7.669,19.939 c -3.361,0 -6.233,-1.195 -8.622,-3.584 -2.379,-2.396 -3.573,-5.279 -3.573,-8.654 0,-3.39 1.194,-6.279 3.573,-8.674 2.389,-2.386 5.261,-3.586 8.622,-3.586 3.376,0 6.256,1.2 8.633,3.586 2.389,2.395 3.585,5.284 3.585,8.674 0,3.375 -1.196,6.258 -3.585,8.654 -2.377,2.389 -5.257,3.584 -8.633,3.584" /></g><g
           transform="translate(551.3643,201.7256)"
           id="g152"><path
             id="path154"
             style="fill:#c51b33;fill-opacity:1;fill-rule:nonzero;stroke:none"
             d="m 0,0 c -1.247,-1.26 -2.749,-1.881 -4.511,-1.881 h -5.502 v 12.883 h 5.502 C -2.749,11.002 -1.247,10.371 0,9.105 1.247,7.844 1.868,6.326 1.868,4.551 1.868,2.77 1.247,1.258 0,0 m -10.013,19.305 h 5.739 c 0.974,0 1.811,-0.348 2.498,-1.041 0.689,-0.705 1.035,-1.543 1.035,-2.52 0,-0.992 -0.346,-1.832 -1.029,-2.514 -0.481,-0.486 -1.206,-0.781 -2.182,-0.882 h -6.061 z m 8.599,-7.565 c 0.2,0.149 0.402,0.33 0.605,0.541 0.95,0.957 1.431,2.108 1.431,3.463 0,1.35 -0.475,2.506 -1.423,3.453 -0.939,0.961 -2.1,1.44 -3.455,1.44 h -7.101 V -3.232 h 7.728 c 1.815,0.248 3.355,1.005 4.622,2.281 1.512,1.517 2.27,3.351 2.27,5.502 0,2.162 -0.758,4.002 -2.27,5.519 -0.733,0.741 -1.532,1.297 -2.407,1.67" /></g><path
           id="path156"
           style="fill:#c51b33;fill-opacity:1;fill-rule:nonzero;stroke:none"
           d="m 562.723,198.493 h 1.348 v 23.869 h -1.348 z" /><g
           transform="translate(574.5146,222.3623)"
           id="g158"><path
             id="path160"
             style="fill:#c51b33;fill-opacity:1;fill-rule:nonzero;stroke:none"
             d="M 0,0 H -1.35 V -23.869 H 9.065 v 1.351 H 0 Z" /></g><path
           id="path162"
           style="fill:#c51b33;fill-opacity:1;fill-rule:nonzero;stroke:none"
           d="m 591.676,198.493 h 1.347 v 23.869 h -1.347 z" /><g
           transform="translate(602.1191,198.4932)"
           id="g164"><path
             id="path166"
             style="fill:#c51b33;fill-opacity:1;fill-rule:nonzero;stroke:none"
             d="M 0,0 H 11.896 V 1.352 H 1.348 v 9.908 h 10.548 v 1.349 H 1.348 v 9.909 h 10.548 v 1.351 H 0 Z" /></g><g
           transform="translate(628.3379,208.1357)"
           id="g168"><path
             id="path170"
             style="fill:#c51b33;fill-opacity:1;fill-rule:nonzero;stroke:none"
             d="M 0,0 H -4.041 V 12.865 H 0 c 1.762,0 3.268,-0.627 4.52,-1.879 C 5.78,9.738 6.412,8.223 6.412,6.443 6.412,4.658 5.78,3.133 4.52,1.881 3.268,0.623 1.762,0 0,0 m 7.747,6.443 c 0,2.141 -0.753,3.975 -2.265,5.508 -1.265,1.272 -2.812,2.035 -4.628,2.276 h -6.242 v -23.87 h 1.347 v 8.272 h 4.446 l 5.302,-8.272 h 1.64 l -5.484,8.495 c 1.36,0.324 2.564,1.015 3.619,2.07 1.512,1.525 2.265,3.363 2.265,5.521" /></g><g
           transform="translate(644.248,198.4932)"
           id="g172"><path
             id="path174"
             style="fill:#c51b33;fill-opacity:1;fill-rule:nonzero;stroke:none"
             d="M 0,0 H 11.896 V 1.352 H 1.347 v 9.908 h 10.549 v 1.349 H 1.347 v 9.909 h 10.549 v 1.351 H 0 Z" /></g></g></g></g></svg>